# xmcd CD database file
#
# Track frame offsets:
#	150
#	26430
#	49482
#	83177
#	108095
#	127092
#	147482
#
# Disc length: 2280 seconds
#
# Revision: 4
# Processed by: cddbd v1.5.2PL0 Copyright (c) Steve Scherf et al.
# Submitted via: CDex 1.70beta2
#
DISCID=5f08e607
DTITLE=Steely Dan - Gaucho
DYEAR=1980
DGENRE=Rock
TTITLE0=Babylon Sisters
TTITLE1=Hey Nineteen
TTITLE2=Glamour Profession
TTITLE3=Gaucho
TTITLE4=Time Out Of Mind
TTITLE5=My Rival
TTITLE6=Third World Man
EXTD=YEAR: 1980
EXTT0=
EXTT1=
EXTT2=
EXTT3=
EXTT4=
EXTT5=
EXTT6=
PLAYORDER=
